<svg xmlns="http://www.w3.org/2000/svg" width="375" viewBox="0 0 375 375" height="375" version="1.0"><path fill="#E9A664" d="M 187.441406 0 C 84.074219 0 0 84.074219 0 187.441406 C -0.0117188 203.246094 1.933594 218.804688 5.835938 234.121094 C 6.3125 236.027344 6.90625 237.933594 7.382812 239.71875 L 39.417969 239.71875 L 39.417969 188.273438 L 61.449219 150.644531 L 61.449219 239.71875 L 85.144531 239.71875 L 85.144531 82.050781 L 108.367188 82.050781 L 108.367188 185.058594 L 126.347656 185.058594 L 126.347656 239.71875 L 146.476562 239.71875 L 146.476562 128.136719 L 185.890625 128.136719 L 185.890625 239.71875 L 212.210938 239.71875 L 212.210938 63.710938 L 234.957031 87.886719 L 234.957031 175.890625 L 257.9375 175.890625 L 257.9375 196.847656 L 289.496094 196.847656 L 289.496094 239.71875 L 314.980469 239.71875 L 314.980469 117.179688 L 332.367188 135.519531 L 332.367188 239.71875 L 361.664062 239.71875 C 360.988281 241.96875 360.269531 244.207031 359.507812 246.433594 C 358.746094 248.65625 357.941406 250.863281 357.09375 253.054688 C 356.246094 255.25 355.355469 257.421875 354.425781 259.582031 C 353.492188 261.738281 352.519531 263.878906 351.503906 266 C 350.492188 268.117188 349.433594 270.21875 348.339844 272.296875 C 347.242188 274.378906 346.105469 276.433594 344.929688 278.46875 C 343.753906 280.503906 342.539062 282.515625 341.285156 284.503906 C 340.03125 286.492188 338.742188 288.457031 337.410156 290.394531 C 336.082031 292.332031 334.714844 294.242188 333.308594 296.128906 C 331.90625 298.015625 330.464844 299.871094 328.988281 301.699219 C 327.511719 303.53125 326 305.328125 324.457031 307.101562 C 322.910156 308.871094 321.328125 310.609375 319.714844 312.320312 C 318.101562 314.027344 316.457031 315.707031 314.777344 317.351562 C 313.101562 318.996094 311.390625 320.609375 309.648438 322.1875 C 307.90625 323.769531 306.136719 325.3125 304.335938 326.824219 C 302.535156 328.335938 300.707031 329.808594 298.847656 331.25 C 296.988281 332.6875 295.105469 334.089844 293.191406 335.457031 C 291.277344 336.824219 289.339844 338.152344 287.375 339.445312 C 285.414062 340.734375 283.425781 341.988281 281.410156 343.203125 C 279.398438 344.417969 277.363281 345.59375 275.304688 346.726562 C 273.246094 347.863281 271.167969 348.957031 269.066406 350.011719 C 266.964844 351.066406 264.847656 352.082031 262.707031 353.050781 C 260.566406 354.023438 258.40625 354.957031 256.230469 355.84375 C 254.054688 356.734375 251.863281 357.578125 249.65625 358.382812 C 247.445312 359.1875 245.222656 359.945312 242.984375 360.664062 C 240.746094 361.382812 238.492188 362.054688 236.230469 362.6875 C 233.964844 363.316406 231.6875 363.902344 229.402344 364.445312 C 227.113281 364.984375 224.816406 365.484375 222.511719 365.9375 C 220.203125 366.390625 217.890625 366.796875 215.566406 367.160156 C 213.246094 367.523438 210.917969 367.839844 208.582031 368.113281 C 206.25 368.386719 203.910156 368.613281 201.566406 368.796875 C 199.222656 368.980469 196.875 369.117188 194.527344 369.207031 C 192.179688 369.296875 189.828125 369.34375 187.476562 369.34375 C 185.128906 369.34375 182.777344 369.296875 180.429688 369.207031 C 178.082031 369.117188 175.734375 368.980469 173.390625 368.796875 C 171.046875 368.613281 168.707031 368.386719 166.375 368.113281 C 164.039062 367.839844 161.710938 367.523438 159.386719 367.160156 C 157.066406 366.796875 154.75 366.390625 152.445312 365.9375 C 150.136719 365.484375 147.84375 364.984375 145.554688 364.445312 C 143.265625 363.902344 140.992188 363.316406 138.726562 362.6875 C 136.460938 362.054688 134.210938 361.382812 131.972656 360.664062 C 129.734375 359.949219 127.511719 359.1875 125.300781 358.382812 C 123.09375 357.578125 120.902344 356.734375 118.722656 355.84375 C 116.546875 354.957031 114.390625 354.023438 112.25 353.054688 C 110.109375 352.082031 107.992188 351.066406 105.890625 350.011719 C 103.789062 348.957031 101.710938 347.863281 99.652344 346.726562 C 97.59375 345.59375 95.558594 344.417969 93.546875 343.203125 C 91.53125 341.988281 89.542969 340.734375 87.578125 339.445312 C 85.617188 338.152344 83.675781 336.824219 81.765625 335.457031 C 79.851562 334.09375 77.96875 332.6875 76.109375 331.25 C 74.25 329.808594 72.421875 328.335938 70.621094 326.824219 C 68.820312 325.3125 67.046875 323.769531 65.308594 322.191406 C 63.566406 320.609375 61.855469 319 60.179688 317.351562 C 58.5 315.707031 56.855469 314.03125 55.242188 312.320312 C 53.625 310.609375 52.046875 308.871094 50.5 307.101562 C 48.957031 305.328125 47.445312 303.53125 45.96875 301.699219 C 44.492188 299.871094 43.050781 298.015625 41.648438 296.128906 C 40.242188 294.246094 38.875 292.332031 37.546875 290.394531 C 36.214844 288.457031 34.925781 286.492188 33.671875 284.503906 C 32.417969 282.519531 31.203125 280.503906 30.027344 278.46875 C 28.847656 276.433594 27.714844 274.378906 26.617188 272.300781 C 25.519531 270.21875 24.464844 268.121094 23.449219 266 C 22.4375 263.878906 21.464844 261.738281 20.53125 259.582031 C 19.601562 257.425781 18.710938 255.25 17.863281 253.054688 L 11.789062 253.054688 C 38.464844 324.152344 107.175781 375 187.441406 375 C 290.804688 375 375 290.804688 375 187.441406 C 375 84.074219 290.804688 0 187.441406 0 Z M 337.964844 234.121094 L 337.964844 133.257812 L 309.382812 103.007812 L 309.382812 234.121094 L 295.09375 234.121094 L 295.09375 191.25 L 263.535156 191.25 L 263.535156 170.171875 L 240.550781 170.171875 L 240.550781 85.621094 L 206.613281 49.660156 L 206.613281 234.121094 L 191.488281 234.121094 L 191.488281 122.539062 L 140.757812 122.539062 L 140.757812 234.121094 L 131.945312 234.121094 L 131.945312 179.460938 L 113.964844 179.460938 L 113.964844 76.453125 L 79.550781 76.453125 L 79.550781 234.121094 L 67.164062 234.121094 L 67.164062 129.921875 L 33.820312 186.726562 L 33.820312 234.121094 L 11.671875 234.121094 C 7.621094 218.824219 5.597656 203.265625 5.597656 187.441406 C 5.597656 87.171875 87.171875 5.597656 187.441406 5.597656 C 287.710938 5.597656 369.402344 87.171875 369.402344 187.441406 C 369.402344 203.265625 367.378906 218.824219 363.328125 234.121094 Z M 337.964844 234.121094"/></svg>