<svg xmlns="http://www.w3.org/2000/svg" xmlns:xlink="http://www.w3.org/1999/xlink" width="375" viewBox="0 0 375 375" height="375" version="1.0"><defs><g id="a"><path d="M 12.953125 -2.703125 C 13.992188 -2.703125 14.925781 -2.878906 15.75 -3.234375 C 16.570312 -3.585938 17.265625 -4.082031 17.828125 -4.71875 C 18.398438 -5.351562 18.835938 -6.109375 19.140625 -6.984375 C 19.441406 -7.867188 19.59375 -8.835938 19.59375 -9.890625 L 19.59375 -25.21875 L 22.984375 -25.21875 L 22.984375 -9.890625 C 22.984375 -8.429688 22.75 -7.082031 22.28125 -5.84375 C 21.820312 -4.601562 21.160156 -3.523438 20.296875 -2.609375 C 19.441406 -1.703125 18.390625 -0.988281 17.140625 -0.46875 C 15.898438 0.0390625 14.503906 0.296875 12.953125 0.296875 C 11.398438 0.296875 10.003906 0.0390625 8.765625 -0.46875 C 7.523438 -0.988281 6.46875 -1.703125 5.59375 -2.609375 C 4.726562 -3.523438 4.0625 -4.601562 3.59375 -5.84375 C 3.132812 -7.082031 2.90625 -8.429688 2.90625 -9.890625 L 2.90625 -25.21875 L 6.296875 -25.21875 L 6.296875 -9.90625 C 6.296875 -8.851562 6.445312 -7.882812 6.75 -7 C 7.050781 -6.125 7.484375 -5.367188 8.046875 -4.734375 C 8.617188 -4.097656 9.316406 -3.597656 10.140625 -3.234375 C 10.972656 -2.878906 11.910156 -2.703125 12.953125 -2.703125 Z M 12.953125 -2.703125"/></g><g id="b"><path d="M 5.4375 -15.25 C 5.820312 -15.675781 6.234375 -16.066406 6.671875 -16.421875 C 7.109375 -16.773438 7.566406 -17.078125 8.046875 -17.328125 C 8.535156 -17.578125 9.050781 -17.769531 9.59375 -17.90625 C 10.144531 -18.039062 10.738281 -18.109375 11.375 -18.109375 C 12.34375 -18.109375 13.195312 -17.945312 13.9375 -17.625 C 14.6875 -17.300781 15.3125 -16.84375 15.8125 -16.25 C 16.3125 -15.65625 16.691406 -14.941406 16.953125 -14.109375 C 17.210938 -13.273438 17.34375 -12.359375 17.34375 -11.359375 L 17.34375 0 L 14.1875 0 L 14.1875 -11.359375 C 14.1875 -12.703125 13.878906 -13.742188 13.265625 -14.484375 C 12.648438 -15.234375 11.710938 -15.609375 10.453125 -15.609375 C 9.523438 -15.609375 8.660156 -15.382812 7.859375 -14.9375 C 7.054688 -14.5 6.3125 -13.894531 5.625 -13.125 L 5.625 0 L 2.484375 0 L 2.484375 -17.828125 L 4.359375 -17.828125 C 4.804688 -17.828125 5.082031 -17.609375 5.1875 -17.171875 Z M 5.4375 -15.25"/></g><g id="c"><path d="M 5.453125 -14.25 C 6.015625 -15.476562 6.707031 -16.429688 7.53125 -17.109375 C 8.351562 -17.796875 9.359375 -18.140625 10.546875 -18.140625 C 10.921875 -18.140625 11.28125 -18.097656 11.625 -18.015625 C 11.96875 -17.941406 12.273438 -17.816406 12.546875 -17.640625 L 12.328125 -15.296875 C 12.253906 -15.003906 12.078125 -14.859375 11.796875 -14.859375 C 11.628906 -14.859375 11.382812 -14.890625 11.0625 -14.953125 C 10.75 -15.023438 10.394531 -15.0625 10 -15.0625 C 9.4375 -15.0625 8.929688 -14.976562 8.484375 -14.8125 C 8.046875 -14.65625 7.65625 -14.414062 7.3125 -14.09375 C 6.96875 -13.769531 6.65625 -13.367188 6.375 -12.890625 C 6.101562 -12.421875 5.851562 -11.878906 5.625 -11.265625 L 5.625 0 L 2.484375 0 L 2.484375 -17.828125 L 4.28125 -17.828125 C 4.613281 -17.828125 4.84375 -17.757812 4.96875 -17.625 C 5.101562 -17.5 5.195312 -17.28125 5.25 -16.96875 Z M 5.453125 -14.25"/></g><g id="d"><path d="M 14.421875 -10.859375 C 14.421875 -11.585938 14.316406 -12.253906 14.109375 -12.859375 C 13.898438 -13.460938 13.597656 -13.984375 13.203125 -14.421875 C 12.816406 -14.859375 12.34375 -15.195312 11.78125 -15.4375 C 11.21875 -15.6875 10.578125 -15.8125 9.859375 -15.8125 C 8.359375 -15.8125 7.171875 -15.375 6.296875 -14.5 C 5.421875 -13.625 4.878906 -12.410156 4.671875 -10.859375 Z M 16.953125 -2.5 C 16.566406 -2.03125 16.101562 -1.617188 15.5625 -1.265625 C 15.019531 -0.921875 14.441406 -0.640625 13.828125 -0.421875 C 13.210938 -0.203125 12.578125 -0.0351562 11.921875 0.078125 C 11.265625 0.191406 10.613281 0.25 9.96875 0.25 C 8.726562 0.25 7.585938 0.0390625 6.546875 -0.375 C 5.515625 -0.789062 4.617188 -1.398438 3.859375 -2.203125 C 3.109375 -3.015625 2.519531 -4.007812 2.09375 -5.1875 C 1.664062 -6.375 1.453125 -7.738281 1.453125 -9.28125 C 1.453125 -10.519531 1.644531 -11.675781 2.03125 -12.75 C 2.414062 -13.832031 2.960938 -14.769531 3.671875 -15.5625 C 4.390625 -16.351562 5.265625 -16.972656 6.296875 -17.421875 C 7.328125 -17.878906 8.488281 -18.109375 9.78125 -18.109375 C 10.851562 -18.109375 11.84375 -17.925781 12.75 -17.5625 C 13.65625 -17.207031 14.441406 -16.691406 15.109375 -16.015625 C 15.773438 -15.347656 16.296875 -14.519531 16.671875 -13.53125 C 17.046875 -12.539062 17.234375 -11.410156 17.234375 -10.140625 C 17.234375 -9.648438 17.179688 -9.320312 17.078125 -9.15625 C 16.972656 -8.988281 16.769531 -8.90625 16.46875 -8.90625 L 4.5625 -8.90625 C 4.59375 -7.78125 4.742188 -6.800781 5.015625 -5.96875 C 5.296875 -5.132812 5.679688 -4.4375 6.171875 -3.875 C 6.671875 -3.320312 7.257812 -2.90625 7.9375 -2.625 C 8.613281 -2.351562 9.375 -2.21875 10.21875 -2.21875 C 11.007812 -2.21875 11.6875 -2.304688 12.25 -2.484375 C 12.820312 -2.671875 13.3125 -2.867188 13.71875 -3.078125 C 14.132812 -3.285156 14.476562 -3.476562 14.75 -3.65625 C 15.03125 -3.84375 15.269531 -3.9375 15.46875 -3.9375 C 15.726562 -3.9375 15.925781 -3.835938 16.0625 -3.640625 Z M 16.953125 -2.5"/></g><g id="e"><path d="M 14.09375 -13.59375 C 13.507812 -14.375 12.875 -14.921875 12.1875 -15.234375 C 11.507812 -15.546875 10.75 -15.703125 9.90625 -15.703125 C 8.25 -15.703125 6.972656 -15.109375 6.078125 -13.921875 C 5.191406 -12.734375 4.75 -11.046875 4.75 -8.859375 C 4.75 -7.691406 4.847656 -6.691406 5.046875 -5.859375 C 5.242188 -5.035156 5.535156 -4.359375 5.921875 -3.828125 C 6.316406 -3.296875 6.796875 -2.90625 7.359375 -2.65625 C 7.921875 -2.40625 8.5625 -2.28125 9.28125 -2.28125 C 10.3125 -2.28125 11.207031 -2.515625 11.96875 -2.984375 C 12.738281 -3.460938 13.445312 -4.128906 14.09375 -4.984375 Z M 17.234375 -25.921875 L 17.234375 0 L 15.359375 0 C 14.921875 0 14.640625 -0.21875 14.515625 -0.65625 L 14.234375 -2.8125 C 13.472656 -1.894531 12.601562 -1.15625 11.625 -0.59375 C 10.65625 -0.03125 9.53125 0.25 8.25 0.25 C 7.226562 0.25 6.300781 0.0507812 5.46875 -0.34375 C 4.632812 -0.738281 3.925781 -1.316406 3.34375 -2.078125 C 2.757812 -2.835938 2.304688 -3.785156 1.984375 -4.921875 C 1.671875 -6.066406 1.515625 -7.378906 1.515625 -8.859375 C 1.515625 -10.171875 1.6875 -11.390625 2.03125 -12.515625 C 2.382812 -13.648438 2.890625 -14.632812 3.546875 -15.46875 C 4.210938 -16.300781 5.019531 -16.953125 5.96875 -17.421875 C 6.925781 -17.898438 8.003906 -18.140625 9.203125 -18.140625 C 10.296875 -18.140625 11.234375 -17.953125 12.015625 -17.578125 C 12.796875 -17.210938 13.488281 -16.703125 14.09375 -16.046875 L 14.09375 -25.921875 Z M 17.234375 -25.921875"/></g><g id="f"><path d="M 17.140625 -17.828125 L 17.140625 0 L 15.28125 0 C 14.832031 0 14.550781 -0.21875 14.4375 -0.65625 L 14.1875 -2.5625 C 13.414062 -1.707031 12.546875 -1.019531 11.578125 -0.5 C 10.617188 0.0195312 9.515625 0.28125 8.265625 0.28125 C 7.296875 0.28125 6.4375 0.117188 5.6875 -0.203125 C 4.945312 -0.523438 4.320312 -0.976562 3.8125 -1.5625 C 3.3125 -2.15625 2.9375 -2.867188 2.6875 -3.703125 C 2.4375 -4.535156 2.3125 -5.453125 2.3125 -6.453125 L 2.3125 -17.828125 L 5.4375 -17.828125 L 5.4375 -6.453125 C 5.4375 -5.109375 5.742188 -4.066406 6.359375 -3.328125 C 6.972656 -2.585938 7.914062 -2.21875 9.1875 -2.21875 C 10.113281 -2.21875 10.976562 -2.4375 11.78125 -2.875 C 12.582031 -3.3125 13.328125 -3.921875 14.015625 -4.703125 L 14.015625 -17.828125 Z M 17.140625 -17.828125"/></g><g id="g"><path d="M 12.140625 -8.03125 C 10.703125 -7.976562 9.472656 -7.859375 8.453125 -7.671875 C 7.441406 -7.492188 6.613281 -7.257812 5.96875 -6.96875 C 5.332031 -6.675781 4.867188 -6.328125 4.578125 -5.921875 C 4.296875 -5.523438 4.15625 -5.082031 4.15625 -4.59375 C 4.15625 -4.125 4.226562 -3.71875 4.375 -3.375 C 4.53125 -3.039062 4.738281 -2.765625 5 -2.546875 C 5.269531 -2.328125 5.582031 -2.164062 5.9375 -2.0625 C 6.300781 -1.96875 6.6875 -1.921875 7.09375 -1.921875 C 7.644531 -1.921875 8.148438 -1.972656 8.609375 -2.078125 C 9.066406 -2.191406 9.5 -2.351562 9.90625 -2.5625 C 10.3125 -2.78125 10.695312 -3.035156 11.0625 -3.328125 C 11.425781 -3.617188 11.785156 -3.953125 12.140625 -4.328125 Z M 2.03125 -15.3125 C 3.007812 -16.257812 4.066406 -16.96875 5.203125 -17.4375 C 6.347656 -17.90625 7.613281 -18.140625 9 -18.140625 C 9.988281 -18.140625 10.867188 -17.972656 11.640625 -17.640625 C 12.421875 -17.316406 13.070312 -16.863281 13.59375 -16.28125 C 14.125 -15.695312 14.523438 -14.988281 14.796875 -14.15625 C 15.066406 -13.320312 15.203125 -12.40625 15.203125 -11.40625 L 15.203125 0 L 13.8125 0 C 13.507812 0 13.273438 -0.046875 13.109375 -0.140625 C 12.941406 -0.242188 12.8125 -0.441406 12.71875 -0.734375 L 12.375 -2.421875 C 11.90625 -1.992188 11.445312 -1.613281 11 -1.28125 C 10.550781 -0.945312 10.082031 -0.664062 9.59375 -0.4375 C 9.101562 -0.207031 8.578125 -0.03125 8.015625 0.09375 C 7.460938 0.21875 6.84375 0.28125 6.15625 0.28125 C 5.46875 0.28125 4.816406 0.1875 4.203125 0 C 3.597656 -0.195312 3.066406 -0.488281 2.609375 -0.875 C 2.160156 -1.257812 1.800781 -1.75 1.53125 -2.34375 C 1.269531 -2.9375 1.140625 -3.640625 1.140625 -4.453125 C 1.140625 -5.160156 1.332031 -5.835938 1.71875 -6.484375 C 2.113281 -7.140625 2.742188 -7.71875 3.609375 -8.21875 C 4.472656 -8.726562 5.601562 -9.140625 7 -9.453125 C 8.394531 -9.773438 10.109375 -9.960938 12.140625 -10.015625 L 12.140625 -11.40625 C 12.140625 -12.789062 11.835938 -13.835938 11.234375 -14.546875 C 10.640625 -15.253906 9.769531 -15.609375 8.625 -15.609375 C 7.851562 -15.609375 7.203125 -15.507812 6.671875 -15.3125 C 6.148438 -15.125 5.695312 -14.910156 5.3125 -14.671875 C 4.9375 -14.429688 4.609375 -14.210938 4.328125 -14.015625 C 4.054688 -13.828125 3.785156 -13.734375 3.515625 -13.734375 C 3.304688 -13.734375 3.125 -13.785156 2.96875 -13.890625 C 2.820312 -14.003906 2.695312 -14.144531 2.59375 -14.3125 Z M 2.03125 -15.3125"/></g><g id="h"><path d="M 7.953125 0.28125 C 6.546875 0.28125 5.460938 -0.109375 4.703125 -0.890625 C 3.953125 -1.679688 3.578125 -2.816406 3.578125 -4.296875 L 3.578125 -15.203125 L 1.421875 -15.203125 C 1.234375 -15.203125 1.070312 -15.257812 0.9375 -15.375 C 0.8125 -15.488281 0.75 -15.660156 0.75 -15.890625 L 0.75 -17.140625 L 3.671875 -17.515625 L 4.40625 -23.015625 C 4.4375 -23.191406 4.515625 -23.335938 4.640625 -23.453125 C 4.765625 -23.566406 4.925781 -23.625 5.125 -23.625 L 6.703125 -23.625 L 6.703125 -17.484375 L 11.859375 -17.484375 L 11.859375 -15.203125 L 6.703125 -15.203125 L 6.703125 -4.5 C 6.703125 -3.75 6.882812 -3.191406 7.25 -2.828125 C 7.613281 -2.460938 8.082031 -2.28125 8.65625 -2.28125 C 8.988281 -2.28125 9.273438 -2.320312 9.515625 -2.40625 C 9.753906 -2.5 9.960938 -2.597656 10.140625 -2.703125 C 10.316406 -2.816406 10.460938 -2.914062 10.578125 -3 C 10.703125 -3.09375 10.8125 -3.140625 10.90625 -3.140625 C 11.070312 -3.140625 11.222656 -3.035156 11.359375 -2.828125 L 12.265625 -1.34375 C 11.722656 -0.832031 11.070312 -0.429688 10.3125 -0.140625 C 9.550781 0.140625 8.765625 0.28125 7.953125 0.28125 Z M 7.953125 0.28125"/></g></defs><path fill="#E9A664" d="M 187.441406 0 C 84.074219 0 0 84.074219 0 187.441406 C -0.0117188 203.246094 1.933594 218.804688 5.835938 234.121094 C 6.3125 236.027344 6.90625 237.933594 7.382812 239.71875 L 39.417969 239.71875 L 39.417969 188.273438 L 61.449219 150.644531 L 61.449219 239.71875 L 85.144531 239.71875 L 85.144531 82.050781 L 108.367188 82.050781 L 108.367188 185.058594 L 126.347656 185.058594 L 126.347656 239.71875 L 146.476562 239.71875 L 146.476562 128.136719 L 185.890625 128.136719 L 185.890625 239.71875 L 212.210938 239.71875 L 212.210938 63.710938 L 234.957031 87.886719 L 234.957031 175.890625 L 257.9375 175.890625 L 257.9375 196.847656 L 289.496094 196.847656 L 289.496094 239.71875 L 314.980469 239.71875 L 314.980469 117.179688 L 332.367188 135.519531 L 332.367188 239.71875 L 361.664062 239.71875 C 360.988281 241.96875 360.269531 244.207031 359.507812 246.433594 C 358.746094 248.65625 357.941406 250.863281 357.09375 253.054688 C 356.246094 255.25 355.355469 257.421875 354.425781 259.582031 C 353.492188 261.738281 352.519531 263.878906 351.503906 266 C 350.492188 268.117188 349.433594 270.21875 348.339844 272.296875 C 347.242188 274.378906 346.105469 276.433594 344.929688 278.46875 C 343.753906 280.503906 342.539062 282.515625 341.285156 284.503906 C 340.03125 286.492188 338.742188 288.457031 337.410156 290.394531 C 336.082031 292.332031 334.714844 294.242188 333.308594 296.128906 C 331.90625 298.015625 330.464844 299.871094 328.988281 301.699219 C 327.511719 303.53125 326 305.328125 324.457031 307.101562 C 322.910156 308.871094 321.328125 310.609375 319.714844 312.320312 C 318.101562 314.027344 316.457031 315.707031 314.777344 317.351562 C 313.101562 318.996094 311.390625 320.609375 309.648438 322.1875 C 307.90625 323.769531 306.136719 325.3125 304.335938 326.824219 C 302.535156 328.335938 300.707031 329.808594 298.847656 331.25 C 296.988281 332.6875 295.105469 334.089844 293.191406 335.457031 C 291.277344 336.824219 289.339844 338.152344 287.375 339.445312 C 285.414062 340.734375 283.425781 341.988281 281.410156 343.203125 C 279.398438 344.417969 277.363281 345.59375 275.304688 346.726562 C 273.246094 347.863281 271.167969 348.957031 269.066406 350.011719 C 266.964844 351.066406 264.847656 352.082031 262.707031 353.050781 C 260.566406 354.023438 258.40625 354.957031 256.230469 355.84375 C 254.054688 356.734375 251.863281 357.578125 249.65625 358.382812 C 247.445312 359.1875 245.222656 359.945312 242.984375 360.664062 C 240.746094 361.382812 238.492188 362.054688 236.230469 362.6875 C 233.964844 363.316406 231.6875 363.902344 229.402344 364.445312 C 227.113281 364.984375 224.816406 365.484375 222.511719 365.9375 C 220.203125 366.390625 217.890625 366.796875 215.566406 367.160156 C 213.246094 367.523438 210.917969 367.839844 208.582031 368.113281 C 206.25 368.386719 203.910156 368.613281 201.566406 368.796875 C 199.222656 368.980469 196.875 369.117188 194.527344 369.207031 C 192.179688 369.296875 189.828125 369.34375 187.476562 369.34375 C 185.128906 369.34375 182.777344 369.296875 180.429688 369.207031 C 178.082031 369.117188 175.734375 368.980469 173.390625 368.796875 C 171.046875 368.613281 168.707031 368.386719 166.375 368.113281 C 164.039062 367.839844 161.710938 367.523438 159.386719 367.160156 C 157.066406 366.796875 154.75 366.390625 152.445312 365.9375 C 150.136719 365.484375 147.84375 364.984375 145.554688 364.445312 C 143.265625 363.902344 140.992188 363.316406 138.726562 362.6875 C 136.460938 362.054688 134.210938 361.382812 131.972656 360.664062 C 129.734375 359.949219 127.511719 359.1875 125.300781 358.382812 C 123.09375 357.578125 120.902344 356.734375 118.722656 355.84375 C 116.546875 354.957031 114.390625 354.023438 112.25 353.054688 C 110.109375 352.082031 107.992188 351.066406 105.890625 350.011719 C 103.789062 348.957031 101.710938 347.863281 99.652344 346.726562 C 97.59375 345.59375 95.558594 344.417969 93.546875 343.203125 C 91.53125 341.988281 89.542969 340.734375 87.578125 339.445312 C 85.617188 338.152344 83.675781 336.824219 81.765625 335.457031 C 79.851562 334.09375 77.96875 332.6875 76.109375 331.25 C 74.25 329.808594 72.421875 328.335938 70.621094 326.824219 C 68.820312 325.3125 67.046875 323.769531 65.308594 322.191406 C 63.566406 320.609375 61.855469 319 60.179688 317.351562 C 58.5 315.707031 56.855469 314.03125 55.242188 312.320312 C 53.625 310.609375 52.046875 308.871094 50.5 307.101562 C 48.957031 305.328125 47.445312 303.53125 45.96875 301.699219 C 44.492188 299.871094 43.050781 298.015625 41.648438 296.128906 C 40.242188 294.246094 38.875 292.332031 37.546875 290.394531 C 36.214844 288.457031 34.925781 286.492188 33.671875 284.503906 C 32.417969 282.519531 31.203125 280.503906 30.027344 278.46875 C 28.847656 276.433594 27.714844 274.378906 26.617188 272.300781 C 25.519531 270.21875 24.464844 268.121094 23.449219 266 C 22.4375 263.878906 21.464844 261.738281 20.53125 259.582031 C 19.601562 257.425781 18.710938 255.25 17.863281 253.054688 L 11.789062 253.054688 C 38.464844 324.152344 107.175781 375 187.441406 375 C 290.804688 375 375 290.804688 375 187.441406 C 375 84.074219 290.804688 0 187.441406 0 Z M 337.964844 234.121094 L 337.964844 133.257812 L 309.382812 103.007812 L 309.382812 234.121094 L 295.09375 234.121094 L 295.09375 191.25 L 263.535156 191.25 L 263.535156 170.171875 L 240.550781 170.171875 L 240.550781 85.621094 L 206.613281 49.660156 L 206.613281 234.121094 L 191.488281 234.121094 L 191.488281 122.539062 L 140.757812 122.539062 L 140.757812 234.121094 L 131.945312 234.121094 L 131.945312 179.460938 L 113.964844 179.460938 L 113.964844 76.453125 L 79.550781 76.453125 L 79.550781 234.121094 L 67.164062 234.121094 L 67.164062 129.921875 L 33.820312 186.726562 L 33.820312 234.121094 L 11.671875 234.121094 C 7.621094 218.824219 5.597656 203.265625 5.597656 187.441406 C 5.597656 87.171875 87.171875 5.597656 187.441406 5.597656 C 287.710938 5.597656 369.402344 87.171875 369.402344 187.441406 C 369.402344 203.265625 367.378906 218.824219 363.328125 234.121094 Z M 337.964844 234.121094"/><g fill="#E9A664"><use x="49.94" y="286.553" xmlns:xlink="http://www.w3.org/1999/xlink" xlink:href="#a" xlink:type="simple" xlink:actuate="onLoad" xlink:show="embed"/></g><g fill="#E9A664"><use x="82.803" y="286.553" xmlns:xlink="http://www.w3.org/1999/xlink" xlink:href="#b" xlink:type="simple" xlink:actuate="onLoad" xlink:show="embed"/></g><g fill="#E9A664"><use x="109.418" y="286.553" xmlns:xlink="http://www.w3.org/1999/xlink" xlink:href="#c" xlink:type="simple" xlink:actuate="onLoad" xlink:show="embed"/></g><g fill="#E9A664"><use x="129.204" y="286.553" xmlns:xlink="http://www.w3.org/1999/xlink" xlink:href="#d" xlink:type="simple" xlink:actuate="onLoad" xlink:show="embed"/></g><g fill="#E9A664"><use x="154.763" y="286.553" xmlns:xlink="http://www.w3.org/1999/xlink" xlink:href="#e" xlink:type="simple" xlink:actuate="onLoad" xlink:show="embed"/></g><g fill="#E9A664"><use x="181.448" y="286.553" xmlns:xlink="http://www.w3.org/1999/xlink" xlink:href="#f" xlink:type="simple" xlink:actuate="onLoad" xlink:show="embed"/></g><g fill="#E9A664"><use x="208.046" y="286.553" xmlns:xlink="http://www.w3.org/1999/xlink" xlink:href="#b" xlink:type="simple" xlink:actuate="onLoad" xlink:show="embed"/></g><g fill="#E9A664"><use x="234.661" y="286.553" xmlns:xlink="http://www.w3.org/1999/xlink" xlink:href="#e" xlink:type="simple" xlink:actuate="onLoad" xlink:show="embed"/></g><g fill="#E9A664"><use x="261.346" y="286.553" xmlns:xlink="http://www.w3.org/1999/xlink" xlink:href="#g" xlink:type="simple" xlink:actuate="onLoad" xlink:show="embed"/></g><g fill="#E9A664"><use x="285.814" y="286.553" xmlns:xlink="http://www.w3.org/1999/xlink" xlink:href="#b" xlink:type="simple" xlink:actuate="onLoad" xlink:show="embed"/></g><g fill="#E9A664"><use x="312.429" y="286.553" xmlns:xlink="http://www.w3.org/1999/xlink" xlink:href="#h" xlink:type="simple" xlink:actuate="onLoad" xlink:show="embed"/></g></svg>